<mxfile host="app.diagrams.net" agent="Mozilla/5.0 (Windows NT 10.0; Win64; x64) AppleWebKit/537.36 (KHTML, like Gecko) Chrome/131.0.0.0 Safari/537.36" version="26.0.7">
  <diagram name="Page-1" id="AuV2LI77WgqBhZ2H265l">
    <mxGraphModel dx="2625" dy="2372" grid="1" gridSize="10" guides="1" tooltips="1" connect="1" arrows="1" fold="1" page="1" pageScale="1" pageWidth="583" pageHeight="827" math="0" shadow="0">
      <root>
        <mxCell id="0" />
        <mxCell id="1" parent="0" />
        <mxCell id="gL6BJl7nwbBWncuyHtoa-64" value="" style="group" vertex="1" connectable="0" parent="1">
          <mxGeometry x="320" y="-730" width="500" height="1360" as="geometry" />
        </mxCell>
        <mxCell id="gL6BJl7nwbBWncuyHtoa-4" value="" style="rounded=0;whiteSpace=wrap;html=1;fillColor=none;" vertex="1" parent="gL6BJl7nwbBWncuyHtoa-64">
          <mxGeometry x="1.187648456057007" width="498.81235154394295" height="102.85714285714285" as="geometry" />
        </mxCell>
        <mxCell id="gL6BJl7nwbBWncuyHtoa-5" value="Country Name" style="text;html=1;align=center;verticalAlign=middle;whiteSpace=wrap;rounded=0;strokeWidth=1;fontSize=23;" vertex="1" parent="gL6BJl7nwbBWncuyHtoa-64">
          <mxGeometry x="149.6437054631829" y="34.285714285714285" width="201.9002375296912" height="34.285714285714285" as="geometry" />
        </mxCell>
        <mxCell id="gL6BJl7nwbBWncuyHtoa-15" value="" style="rounded=0;whiteSpace=wrap;html=1;fillColor=none;" vertex="1" parent="gL6BJl7nwbBWncuyHtoa-64">
          <mxGeometry y="1257.142857142857" width="500" height="102.85714285714285" as="geometry" />
        </mxCell>
        <mxCell id="gL6BJl7nwbBWncuyHtoa-16" value="" style="whiteSpace=wrap;html=1;" vertex="1" parent="gL6BJl7nwbBWncuyHtoa-64">
          <mxGeometry y="662.8571428571428" width="500" height="297.14285714285717" as="geometry" />
        </mxCell>
        <mxCell id="gL6BJl7nwbBWncuyHtoa-40" value="&lt;font style=&quot;font-size: 16px;&quot;&gt;Label : Value&lt;/font&gt;&lt;div&gt;&lt;font style=&quot;font-size: 16px;&quot;&gt;Label : Value&lt;/font&gt;&lt;/div&gt;&lt;div style=&quot;&quot;&gt;&lt;font style=&quot;font-size: 16px;&quot;&gt;Label : Value&lt;/font&gt;&lt;/div&gt;&lt;div&gt;&lt;font style=&quot;font-size: 16px;&quot;&gt;Label : Value&lt;/font&gt;&lt;/div&gt;&lt;div&gt;&lt;font style=&quot;font-size: 16px;&quot;&gt;Label : Value&lt;/font&gt;&lt;/div&gt;&lt;div&gt;&lt;font style=&quot;font-size: 16px;&quot;&gt;Label : Value&lt;/font&gt;&lt;/div&gt;" style="text;html=1;align=left;verticalAlign=top;whiteSpace=wrap;rounded=0;spacingTop=0;spacingBottom=0;spacing=2;" vertex="1" parent="gL6BJl7nwbBWncuyHtoa-64">
          <mxGeometry x="191.21140142517814" y="754.2857142857143" width="142.51781472684084" height="148.57142857142858" as="geometry" />
        </mxCell>
        <mxCell id="gL6BJl7nwbBWncuyHtoa-41" value="Data" style="text;html=1;align=center;verticalAlign=middle;whiteSpace=wrap;rounded=0;fontSize=21;" vertex="1" parent="gL6BJl7nwbBWncuyHtoa-64">
          <mxGeometry x="212.58907363420425" y="697.1428571428572" width="71.25890736342042" height="34.285714285714285" as="geometry" />
        </mxCell>
        <mxCell id="gL6BJl7nwbBWncuyHtoa-56" value="Standard footer content - copyright - name - location&lt;div&gt;Last Modified Date&lt;/div&gt;" style="text;html=1;align=center;verticalAlign=middle;whiteSpace=wrap;rounded=0;fontSize=13;" vertex="1" parent="gL6BJl7nwbBWncuyHtoa-64">
          <mxGeometry x="13.064133016627078" y="1291.4285714285713" width="452.4940617577197" height="34.285714285714285" as="geometry" />
        </mxCell>
        <mxCell id="gL6BJl7nwbBWncuyHtoa-58" value="" style="group" vertex="1" connectable="0" parent="gL6BJl7nwbBWncuyHtoa-64">
          <mxGeometry y="102.85714285714285" width="500" height="560" as="geometry" />
        </mxCell>
        <mxCell id="gL6BJl7nwbBWncuyHtoa-11" value="&lt;font style=&quot;font-size: 15px;&quot;&gt;Large Image&lt;/font&gt;" style="whiteSpace=wrap;html=1;glass=0;" vertex="1" parent="gL6BJl7nwbBWncuyHtoa-58">
          <mxGeometry width="500" height="560" as="geometry" />
        </mxCell>
        <mxCell id="gL6BJl7nwbBWncuyHtoa-55" value="" style="shape=umlDestroy;whiteSpace=wrap;html=1;strokeWidth=1;targetShapes=umlLifeline;fillColor=#bac8d3;strokeColor=#23445d;" vertex="1" parent="gL6BJl7nwbBWncuyHtoa-58">
          <mxGeometry x="4.3478260869565215" y="9.180327868852459" width="491.3043478260869" height="541.639344262295" as="geometry" />
        </mxCell>
        <mxCell id="gL6BJl7nwbBWncuyHtoa-59" value="" style="whiteSpace=wrap;html=1;" vertex="1" parent="gL6BJl7nwbBWncuyHtoa-64">
          <mxGeometry y="960" width="500" height="297.14285714285717" as="geometry" />
        </mxCell>
        <mxCell id="gL6BJl7nwbBWncuyHtoa-60" value="&lt;font style=&quot;font-size: 16px;&quot;&gt;Label : Value&lt;/font&gt;&lt;div&gt;&lt;font style=&quot;font-size: 16px;&quot;&gt;Label : Value&lt;/font&gt;&lt;/div&gt;&lt;div style=&quot;&quot;&gt;&lt;font style=&quot;font-size: 16px;&quot;&gt;Label : Value&lt;/font&gt;&lt;/div&gt;&lt;div&gt;&lt;font style=&quot;font-size: 16px;&quot;&gt;Label : Value&lt;/font&gt;&lt;/div&gt;&lt;div&gt;&lt;font style=&quot;font-size: 16px;&quot;&gt;Label : Value&lt;/font&gt;&lt;/div&gt;&lt;div&gt;&lt;font style=&quot;font-size: 16px;&quot;&gt;Label : Value&lt;/font&gt;&lt;/div&gt;" style="text;html=1;align=left;verticalAlign=top;whiteSpace=wrap;rounded=0;spacingTop=0;spacingBottom=0;spacing=2;" vertex="1" parent="gL6BJl7nwbBWncuyHtoa-64">
          <mxGeometry x="191.21140142517814" y="1051.4285714285713" width="142.51781472684084" height="148.57142857142858" as="geometry" />
        </mxCell>
        <mxCell id="gL6BJl7nwbBWncuyHtoa-61" value="Weather" style="text;html=1;align=center;verticalAlign=middle;whiteSpace=wrap;rounded=0;fontSize=21;" vertex="1" parent="gL6BJl7nwbBWncuyHtoa-64">
          <mxGeometry x="191.21140142517814" y="994.2857142857143" width="106.88836104513064" height="34.285714285714285" as="geometry" />
        </mxCell>
      </root>
    </mxGraphModel>
  </diagram>
</mxfile>
